<svg width="16" height="17" viewBox="0 0 16 17" fill="none" xmlns="http://www.w3.org/2000/svg">
<path id="Shape" fill-rule="evenodd" clip-rule="evenodd" d="M15.6303 3.62326L13.2059 1.22088C12.9592 0.976383 12.6358 0.854553 12.3124 0.854553C11.9882 0.854553 11.6657 0.976383 11.4189 1.22088L8.42105 4.19235H0.842105C0.377263 4.19235 0 4.56535 0 5.0268V15.8746C0 16.3361 0.377263 16.7091 0.842105 16.7091H11.7895C12.2543 16.7091 12.6316 16.3361 12.6316 15.8746V8.3646L15.6303 5.39313C15.8771 5.14863 16 4.8282 16 4.50777C16 4.18735 15.8771 3.86775 15.6303 3.62326ZM7.15791 11.4287L5.32886 9.61627L10.6282 4.36508L12.4573 6.17751L7.15791 11.4287ZM6.47998 11.7533L5.00128 10.3114L5.05265 11.7024L6.47998 11.7533ZM10.9474 15.0402H1.6842V5.86125H6.73685L4.05895 8.5148C3.81221 8.7593 3.65642 9.19237 3.52926 9.59041C3.39452 10.0076 3.36842 10.4716 3.36842 10.817V13.3713H5.94611C6.29474 13.3713 6.87917 13.2879 7.26906 13.1293L7.3786 13.0852C7.72723 12.9451 8.04673 12.8167 8.26949 12.5953L10.9474 10.0335V15.0402ZM11.2236 3.77513L13.0526 5.58755L14.1406 4.50861L12.3124 2.69618L11.2236 3.77513Z" fill="#2F2F2F"/>
</svg>
