<svg width="17" height="16" viewBox="0 0 17 16" fill="none" xmlns="http://www.w3.org/2000/svg">
<path id="Shape" fill-rule="evenodd" clip-rule="evenodd" d="M10.1672 14.9934C10.8165 15.6427 11.6788 16 12.5973 16C13.5158 16 14.3781 15.6427 15.0263 14.9945C15.6756 14.3452 16.0329 13.4817 16.0329 12.5644C16.0329 11.6471 15.6756 10.7836 15.0263 10.1354L12.8756 7.98354L15.0263 5.83284C15.6756 5.1835 16.0329 4.32001 16.0329 3.4027C16.0329 2.48539 15.6756 1.6219 15.0274 0.973714C13.7288 -0.323808 11.4658 -0.323808 10.1683 0.973714L8.01646 3.12556L5.86576 0.973714C4.56709 -0.324953 2.30416 -0.323808 1.00664 0.972569C0.357305 1.6219 0 2.48539 0 3.4027C0 4.32001 0.357305 5.1835 1.00664 5.83169L3.15734 7.98354L1.00664 10.1342C0.357305 10.7836 0 11.6471 0 12.5644C0 13.4817 0.357305 14.3452 1.00549 14.9934C2.30416 16.2909 4.56709 16.2909 5.86461 14.9934L8.01646 12.8415L10.1672 14.9934ZM11.7876 13.374L8.01646 9.60286L4.24529 13.3752C3.81355 13.8069 3.05885 13.8081 2.62596 13.374C2.40952 13.1576 2.29042 12.8713 2.29042 12.5644C2.29042 12.2575 2.40952 11.9712 2.62596 11.7547L6.39599 7.98354L2.62596 4.21236C2.40952 3.99592 2.29042 3.70847 2.29042 3.4027C2.29042 3.09693 2.40952 2.80948 2.62596 2.59304C3.05771 2.1613 3.8124 2.16015 4.24529 2.59304L8.01646 6.36421L11.7876 2.59189C12.2194 2.16015 12.9741 2.159 13.407 2.59304C13.6234 2.80948 13.7425 3.09693 13.7425 3.4027C13.7425 3.70847 13.6234 3.99592 13.407 4.21236L9.63693 7.98354L13.407 11.7547C13.6234 11.9712 13.7425 12.2575 13.7425 12.5644C13.7425 12.8713 13.6234 13.1576 13.407 13.374C12.9752 13.8058 12.2205 13.8069 11.7876 13.374Z" fill="#008421"/>
</svg>
