<svg width="12" height="16" viewBox="0 0 12 16" fill="none" xmlns="http://www.w3.org/2000/svg">
<path id="Shape" fill-rule="evenodd" clip-rule="evenodd" d="M0.941176 4.70588C0.941176 2.10635 3.04565 0 5.64706 0C8.24847 0 10.3529 2.10635 10.3529 4.70588C10.3529 7.30541 8.24847 9.41177 5.64706 9.41177C3.04565 9.41177 0.941176 7.30541 0.941176 4.70588ZM8.47059 4.70588C8.47059 3.14918 7.20376 1.88235 5.64706 1.88235C4.09035 1.88235 2.82353 3.14918 2.82353 4.70588C2.82353 6.26259 4.09035 7.52941 5.64706 7.52941C7.20376 7.52941 8.47059 6.26259 8.47059 4.70588ZM5.64706 12.2353C7.54918 12.2353 8.75388 12.9609 9.20753 13.5953C8.56471 13.84 7.35435 14.1176 5.64706 14.1176C3.77976 14.1176 2.62965 13.8306 2.05365 13.6075C2.48565 12.9346 3.72612 12.2353 5.64706 12.2353ZM0 14.1176C0 12.2353 2.11765 10.3529 5.64706 10.3529C9.07859 10.3529 11.2941 12.2353 11.2941 14.1176C11.2941 15.0588 8.95812 16 5.64706 16C2.11765 16 0 15.0588 0 14.1176Z" fill="#F5F5F5"/>
</svg>
