<svg width="154" height="36" viewBox="0 0 154 36" fill="none" xmlns="http://www.w3.org/2000/svg">
<g id="inchoo-logo 1" clip-path="url(#clip0_14_1204)">
<g id="Page-1">
<g id="logo">
<g id="Layer%201">
<path id="type" fill-rule="evenodd" clip-rule="evenodd" d="M45.9165 15.6209H44.4928V31.7487C44.4928 33.7732 45.9313 35.0603 47.8566 35.0603H49.3543L49.3498 19.0832C49.3498 17.2441 48.2567 15.6209 45.9165 15.6209ZM46.8133 8.02429C45.2409 8.02429 43.9609 9.31169 43.9609 10.8938C43.9609 12.4754 45.2409 13.799 46.8133 13.799C48.3862 13.799 49.7031 12.4754 49.7031 10.8938C49.7031 9.31169 48.3862 8.02429 46.8133 8.02429ZM62.9638 14.7558C61.2518 14.7558 59.6096 15.9126 58.1936 17.4688C57.7126 16.3937 56.7063 15.6209 55.0995 15.6209H53.6757V25.4851V31.7487V31.8241C53.6757 32.5177 53.8683 33.1486 54.2211 33.6654C54.8095 34.5491 55.8264 35.0603 57.0392 35.0603H57.1128H58.5367H58.5746V24.3273C58.5746 20.9855 60.0733 19.1338 62.1952 19.1338C64.7189 19.1338 66.1449 20.6034 66.1449 23.9514V31.8241C66.1449 33.6626 67.535 35.0603 69.7292 35.0603H71.045V23.5089C71.045 17.8824 68.1489 14.7558 62.9638 14.7558ZM101.708 14.7558C99.8431 14.7558 98.1601 16.2269 97.4295 17.4048V11.7387C97.4295 9.90016 96.2953 8.57632 93.9557 8.57632H92.4205V31.7487C92.4205 33.7732 93.4798 35.0603 95.7841 35.0603H97.3927V23.8038C97.3927 20.3104 99.4042 19.1338 100.94 19.1338C103.097 19.1338 104.853 20.4216 104.853 23.6569V31.7487C104.853 33.8831 106.131 35.0603 108.181 35.0603H109.789V23.4361C109.789 17.809 106.79 14.7558 101.708 14.7558ZM122.658 14.7558C116.295 14.7558 112.894 19.5382 112.894 25.4957C112.894 30.7555 116.295 35.5021 122.218 35.5021C128.58 35.5021 131.981 30.7555 131.981 24.798C131.981 19.5382 128.58 14.7558 122.658 14.7558ZM122.658 31.0877C119.403 31.0877 117.976 28.7335 117.976 24.798C117.976 21.5238 119.403 19.1705 122.218 19.1705C125.436 19.1705 126.9 21.5238 126.9 25.4957C126.9 28.7335 125.51 31.0877 122.658 31.0877ZM144.414 14.9675C138.05 14.9675 134.649 19.7492 134.649 25.7074C134.649 30.9671 138.05 35.7135 143.973 35.7135C150.338 35.7135 153.739 30.9671 153.739 25.0094C153.739 19.7492 150.338 14.9675 144.414 14.9675ZM144.414 31.2993C141.158 31.2993 139.733 28.9449 139.733 25.0094C139.733 21.7351 141.158 19.3819 143.973 19.3819C147.194 19.3819 148.655 21.7351 148.655 25.7074C148.655 28.9449 147.265 31.2993 144.414 31.2993ZM84.6506 30.9382C80.8606 30.9382 79.1549 28.4739 79.1549 24.868C79.1549 21.926 81.763 19.6742 84.5306 19.6076L85.6664 19.5618C89.391 19.4528 89.036 15.2224 89.036 15.2224L85.5542 15.0833C77.5326 15.0833 74.0357 19.9396 74.0357 25.6041C74.0357 31.2689 78.5197 35.4987 83.4661 35.4987C90.2407 35.4987 89.6595 30.6217 89.6595 30.6217C89.6595 30.6217 86.4844 30.9382 84.6506 30.9382Z" fill="#404041"/>
<path id="icon" fill-rule="evenodd" clip-rule="evenodd" d="M9.72803 35.1002C4.24206 35.1002 0.435303 31.04 0.435303 25.5674V0.0394897H25.3031C30.6988 0.0394897 34.7685 4.36414 34.7685 9.74974V35.1002H9.72803ZM30.7698 9.74974C30.7698 7.13658 29.0591 4.4134 25.3031 4.4134H4.34647V25.5674C4.34647 28.0681 5.69131 30.7272 9.72803 30.7272H25.5289L14.7894 18.4461C14.4794 18.0354 14.2949 17.5222 14.2949 16.9668C14.2949 15.6149 15.3844 14.5187 16.7286 14.5187C17.2424 14.5187 17.7204 14.6788 18.1138 14.9527L30.7698 24.8574V9.74974ZM10.4179 13.799C8.84605 13.799 7.56646 12.4754 7.56646 10.8938C7.56646 9.31168 8.84605 8.02429 10.4179 8.02429C11.9914 8.02429 13.3077 9.31168 13.3077 10.8938C13.3077 12.4754 11.9914 13.799 10.4179 13.799Z" fill="#79AD36"/>
</g>
</g>
</g>
</g>
<defs>
<clipPath id="clip0_14_1204">
<rect width="154" height="36" fill="white"/>
</clipPath>
</defs>
</svg>
