<svg width="99" height="23" viewBox="0 0 99 23" fill="none" xmlns="http://www.w3.org/2000/svg">
<g id="inchoo-logo 1" clip-path="url(#clip0_14_1687)">
<g id="Page-1">
<g id="logo">
<g id="Layer%201">
<path id="type" fill-rule="evenodd" clip-rule="evenodd" d="M29.5176 9.98004H28.6024V20.2839C28.6024 21.5773 29.5271 22.3996 30.7649 22.3996H31.7277L31.7248 12.1921C31.7248 11.0171 31.022 9.98004 29.5176 9.98004ZM30.0942 5.12665C29.0833 5.12665 28.2605 5.94915 28.2605 6.95992C28.2605 7.9704 29.0833 8.81602 30.0942 8.81602C31.1053 8.81602 31.9519 7.9704 31.9519 6.95992C31.9519 5.94915 31.1053 5.12665 30.0942 5.12665ZM40.4766 9.42731C39.3761 9.42731 38.3203 10.1664 37.4101 11.1607C37.1009 10.4738 36.4539 9.98004 35.421 9.98004H34.5057V16.2822V20.2839V20.3321C34.5057 20.7752 34.6295 21.1783 34.8563 21.5085C35.2346 22.0731 35.8883 22.3996 36.6679 22.3996H36.7153H37.6307H37.655V15.5425C37.655 13.4074 38.6185 12.2244 39.9825 12.2244C41.6049 12.2244 42.5216 13.1633 42.5216 15.3023V20.3321C42.5216 21.5067 43.4153 22.3996 44.8258 22.3996H45.6717V15.0196C45.6717 11.4249 43.8099 9.42731 40.4766 9.42731ZM65.3835 9.42731C64.1847 9.42731 63.1028 10.3672 62.6331 11.1198V7.49974C62.6331 6.32512 61.904 5.47933 60.4 5.47933H59.413V20.2839C59.413 21.5773 60.094 22.3996 61.5754 22.3996H62.6095V15.208C62.6095 12.9761 63.9026 12.2244 64.8897 12.2244C66.2765 12.2244 67.4053 13.0471 67.4053 15.1141V20.2839C67.4053 21.6475 68.2268 22.3996 69.5447 22.3996H70.5785V14.9731C70.5785 11.378 68.6509 9.42731 65.3835 9.42731ZM78.8513 9.42731C74.7607 9.42731 72.5744 12.4828 72.5744 16.2889C72.5744 19.6494 74.7607 22.6819 78.5687 22.6819C82.6586 22.6819 84.845 19.6494 84.845 15.8432C84.845 12.4828 82.6586 9.42731 78.8513 9.42731ZM78.8513 19.8616C76.7587 19.8616 75.8417 18.3575 75.8417 15.8432C75.8417 13.7513 76.7587 12.2478 78.5687 12.2478C80.6376 12.2478 81.5786 13.7513 81.5786 16.2889C81.5786 18.3575 80.6847 19.8616 78.8513 19.8616ZM92.8375 9.56256C88.7465 9.56256 86.5597 12.6176 86.5597 16.4242C86.5597 19.7845 88.7465 22.817 92.554 22.817C96.6457 22.817 98.832 19.7845 98.832 15.9782C98.832 12.6176 96.6457 9.56256 92.8375 9.56256ZM92.8375 19.9968C90.7444 19.9968 89.8284 18.4926 89.8284 15.9782C89.8284 13.8863 90.7444 12.3829 92.554 12.3829C94.6243 12.3829 95.5638 13.8863 95.5638 16.4242C95.5638 18.4926 94.6705 19.9968 92.8375 19.9968ZM54.4181 19.7661C51.9817 19.7661 50.8852 18.1917 50.8852 15.8879C50.8852 14.0083 52.5618 12.5697 54.341 12.5271L55.0711 12.4978C57.4655 12.4282 57.2373 9.72547 57.2373 9.72547L54.999 9.63656C49.8423 9.63656 47.5942 12.7392 47.5942 16.3582C47.5942 19.9774 50.4768 22.6797 53.6567 22.6797C58.0118 22.6797 57.6382 19.5639 57.6382 19.5639C57.6382 19.5639 55.597 19.7661 54.4181 19.7661Z" fill="#404041"/>
<path id="icon" fill-rule="evenodd" clip-rule="evenodd" d="M6.25368 22.4251C2.72699 22.4251 0.279785 19.8311 0.279785 16.3347V0.0252686H16.2662C19.7349 0.0252686 22.3511 2.78824 22.3511 6.22904V22.4251H6.25368ZM19.7805 6.22904C19.7805 4.55952 18.6808 2.81971 16.2662 2.81971H2.79411V16.3347C2.79411 17.9325 3.65865 19.6313 6.25368 19.6313H16.4114L9.50742 11.7851C9.30814 11.5226 9.1895 11.1948 9.1895 10.8399C9.1895 9.97625 9.88989 9.27587 10.754 9.27587C11.0844 9.27587 11.3916 9.37819 11.6445 9.55316L19.7805 15.8811V6.22904ZM6.69717 8.81604C5.68669 8.81604 4.8641 7.97042 4.8641 6.95994C4.8641 5.94917 5.68669 5.12667 6.69717 5.12667C7.7087 5.12667 8.5549 5.94917 8.5549 6.95994C8.5549 7.97042 7.7087 8.81604 6.69717 8.81604Z" fill="#79AD36"/>
</g>
</g>
</g>
</g>
<defs>
<clipPath id="clip0_14_1687">
<rect width="99" height="23" fill="white"/>
</clipPath>
</defs>
</svg>
