<svg width="40" height="40" viewBox="0 0 40 40" fill="none" xmlns="http://www.w3.org/2000/svg">
<g id="menu">
<circle id="Oval 2" cx="20" cy="20" r="20" fill="#F5F5F5"/>
<path id="Shape" fill-rule="evenodd" clip-rule="evenodd" d="M14.4 12H25.6C26.9232 12 28 13.0768 28 14.4C28 15.7232 26.9232 16.8 25.6 16.8H14.4C13.0768 16.8 12 15.7232 12 14.4C12 13.0768 13.0768 12 14.4 12ZM25.6 13.6C26.04 13.6 26.4 13.96 26.4 14.4C26.4 14.84 26.04 15.2 25.6 15.2H14.4C13.96 15.2 13.6 14.84 13.6 14.4C13.6 13.96 13.96 13.6 14.4 13.6H25.6ZM14.4 17.6H25.6C26.9232 17.6 28 18.6768 28 20C28 21.3232 26.9232 22.4 25.6 22.4H14.4C13.0768 22.4 12 21.3232 12 20C12 18.6768 13.0768 17.6 14.4 17.6ZM25.6 19.2C26.04 19.2 26.4 19.56 26.4 20C26.4 20.44 26.04 20.8 25.6 20.8H14.4C13.96 20.8 13.6 20.44 13.6 20C13.6 19.56 13.96 19.2 14.4 19.2H25.6ZM14.4 23.2H25.6C26.9232 23.2 28 24.2768 28 25.6C28 26.9232 26.9232 28 25.6 28H14.4C13.0768 28 12 26.9232 12 25.6C12 24.2768 13.0768 23.2 14.4 23.2ZM26.4 25.6C26.4 25.16 26.04 24.8 25.6 24.8H14.4C13.96 24.8 13.6 25.16 13.6 25.6C13.6 26.04 13.96 26.4 14.4 26.4H25.6C26.04 26.4 26.4 26.04 26.4 25.6Z" fill="#2F2F2F"/>
</g>
</svg>
