<svg width="16" height="16" viewBox="0 0 16 16" fill="none" xmlns="http://www.w3.org/2000/svg">
<path id="Shape" fill-rule="evenodd" clip-rule="evenodd" d="M5.33333 13.3333C5.33333 14.8036 6.52978 16 8 16C9.47022 16 10.6667 14.8036 10.6667 13.3493L10.7156 10.6196L13.3333 10.6667C14.8036 10.6667 16 9.47022 16 8C16 6.52978 14.8036 5.33333 13.3493 5.33333L10.7156 5.28533L10.6667 2.66667C10.6667 1.19644 9.47022 0 8 0C6.52978 0 5.33333 1.19644 5.33333 2.68267L5.38044 5.28533L2.66667 5.33333C1.19644 5.33333 0 6.52978 0 8C0 9.47022 1.19644 10.6667 2.68267 10.6667L5.38044 10.6196L5.33333 13.3333ZM7.11111 13.3493V8.88889H2.66667C2.17689 8.88889 1.77778 8.48978 1.77778 8C1.77778 7.51022 2.16089 7.11111 2.66667 7.11111H7.11111V2.66667C7.11111 2.17689 7.51022 1.77778 8 1.77778C8.48978 1.77778 8.88889 2.16089 8.88889 2.66667V7.11111H13.3333C13.8231 7.11111 14.2222 7.51022 14.2222 8C14.2222 8.48978 13.8231 8.88889 13.3493 8.88889H8.88889V13.3333C8.88889 13.8231 8.48978 14.2222 8 14.2222C7.51022 14.2222 7.11111 13.8231 7.11111 13.3493Z" fill="#2F2F2F"/>
</svg>
