<svg width="16" height="16" viewBox="0 0 16 16" fill="none" xmlns="http://www.w3.org/2000/svg">
<path id="Shape" fill-rule="evenodd" clip-rule="evenodd" d="M15.1203 10.9072L12.9828 8.73359C13.1999 8.0795 13.3294 7.38923 13.3294 6.66468C13.3294 2.99054 10.3388 0 6.66468 0C2.99054 0 0 2.99054 0 6.66468C0 10.3388 2.99054 13.3294 6.66468 13.3294C7.38923 13.3294 8.0814 13.1989 8.73359 12.9828L11.0158 15.2545C11.588 15.7363 12.2992 16 13.019 16C14.6633 16 16 14.6633 16 13.019C16 12.2192 15.6877 11.469 15.1203 10.9072ZM11.4061 9.8504L13.7788 12.2602C13.9739 12.4534 14.0949 12.7229 14.0949 13.019C14.0949 13.614 13.6121 14.0958 13.018 14.0958C12.721 14.0958 12.4525 13.9749 12.2411 13.7978L9.84945 11.4071C10.4645 10.992 10.9929 10.4636 11.4061 9.8504ZM6.66468 1.9042C4.03975 1.9042 1.9042 4.03975 1.9042 6.66468C1.9042 9.28962 4.03975 11.4252 6.66468 11.4252C9.28962 11.4252 11.4252 9.28962 11.4252 6.66468C11.4252 4.03975 9.28962 1.9042 6.66468 1.9042Z" fill="#2F2F2F"/>
</svg>
