<svg width="40" height="40" viewBox="0 0 40 40" fill="none" xmlns="http://www.w3.org/2000/svg">
<g id="search_active">
<rect id="Mask" width="40" height="40" fill="#2F2F2F"/>
<path id="Shape" fill-rule="evenodd" clip-rule="evenodd" d="M27.1203 22.9072L24.9828 20.7336C25.1999 20.0795 25.3294 19.3892 25.3294 18.6647C25.3294 14.9905 22.3388 12 18.6647 12C14.9905 12 12 14.9905 12 18.6647C12 22.3388 14.9905 25.3294 18.6647 25.3294C19.3892 25.3294 20.0814 25.1989 20.7336 24.9828L23.0158 27.2545C23.588 27.7363 24.2992 28 25.019 28C26.6633 28 28 26.6633 28 25.019C28 24.2192 27.6877 23.469 27.1203 22.9072ZM23.4061 21.8504L25.7788 24.2602C25.9739 24.4534 26.0949 24.7229 26.0949 25.019C26.0949 25.614 25.6121 26.0958 25.018 26.0958C24.721 26.0958 24.4525 25.9749 24.2411 25.7978L21.8494 23.4071C22.4645 22.992 22.9929 22.4636 23.4061 21.8504ZM18.6647 13.9042C16.0398 13.9042 13.9042 16.0398 13.9042 18.6647C13.9042 21.2896 16.0398 23.4252 18.6647 23.4252C21.2896 23.4252 23.4252 21.2896 23.4252 18.6647C23.4252 16.0398 21.2896 13.9042 18.6647 13.9042Z" fill="#F5F5F5"/>
</g>
</svg>
