<svg width="16" height="16" viewBox="0 0 16 16" fill="none" xmlns="http://www.w3.org/2000/svg">
<g id="shopping-cart">
<path id="Shape" fill-rule="evenodd" clip-rule="evenodd" d="M15.6097 2.54418C15.4588 2.37115 15.2415 2.27159 15.0124 2.27159H4.09369L3.93961 1.35189C3.8764 0.971049 3.54692 0.691345 3.16055 0.691345H1.38277C0.945837 0.691345 0.592651 1.04453 0.592651 1.48147C0.592651 1.91841 0.945837 2.27159 1.38277 2.27159H2.49132L3.96095 11.0925L3.9965 11.1905L4.03917 11.3098L4.13398 11.4512L4.20905 11.5397L4.36154 11.6425L4.45003 11.6938C4.54169 11.731 4.63808 11.7531 4.74001 11.7531H13.4322C13.8691 11.7531 14.2223 11.3999 14.2223 10.9629C14.2223 10.526 13.8691 10.1728 13.4322 10.1728H5.41003L5.27887 9.3827H14.2223C14.6158 9.3827 14.9492 9.09352 15.0045 8.70478L15.7946 3.17391C15.827 2.94636 15.7591 2.71643 15.6097 2.54418ZM14.1014 3.85184L13.8762 5.43209H11.0618V3.85184H14.1014ZM10.2717 5.43209V3.85184H7.90129V5.43209H10.2717ZM10.2717 6.22221V7.80246H7.90129V6.22221H10.2717ZM7.11117 5.43209V3.85184H4.3568L4.62386 5.45579L4.7408 5.43209H7.11117ZM4.75186 6.22221H7.11117V7.80246H5.01497L4.75186 6.22221ZM11.0618 6.22221V7.80246H13.5372L13.7624 6.22221H11.0618Z" fill="white"/>
<circle id="Oval" cx="5.62964" cy="14.5185" r="1.18519" fill="white"/>
<circle id="Oval_2" cx="12.7408" cy="14.5185" r="1.18519" fill="white"/>
</g>
</svg>
