<svg width="16" height="17" viewBox="0 0 16 17" fill="none" xmlns="http://www.w3.org/2000/svg">
<path id="Shape" fill-rule="evenodd" clip-rule="evenodd" d="M8 0.854553C3.58844 0.854553 0 4.41126 0 8.78183C0 13.1524 3.58844 16.7091 8 16.7091C12.4116 16.7091 16 13.1524 16 8.78183C16 4.41126 12.4116 0.854553 8 0.854553ZM8 14.9475C4.56977 14.9475 1.77777 12.1817 1.77777 8.78183C1.77777 5.38191 4.56977 2.61617 8 2.61617C11.4302 2.61617 14.2222 5.38191 14.2222 8.78183C14.2222 12.1817 11.4302 14.9475 8 14.9475ZM10.9804 6.45121L8.62843 8.78183L10.9813 11.1133C11.1538 11.2851 11.1538 11.5652 10.9813 11.7361C10.8942 11.8215 10.7804 11.8647 10.6667 11.8647C10.5529 11.8647 10.4391 11.8215 10.352 11.7352L7.99998 9.40456L5.64797 11.7361C5.56086 11.8215 5.44708 11.8647 5.33331 11.8647C5.21953 11.8647 5.10575 11.8215 5.01953 11.7352C4.84619 11.5643 4.84619 11.2842 5.01953 11.1124L7.37153 8.78183L5.01953 6.45033C4.84619 6.27945 4.84619 5.99935 5.01953 5.8276C5.19197 5.65672 5.47464 5.65672 5.64797 5.8276L7.99998 8.15909L10.352 5.82848C10.5244 5.6576 10.8071 5.6576 10.9804 5.82848C11.1529 6.00023 11.1529 6.28033 10.9804 6.45121Z" fill="#2F2F2F"/>
</svg>
